HIERARCHY
ROOT root
{
	OFFSET	0	13.1	24.9
	CHANNELS 6  Xposition Yposition Zposition Xrotation Yrotation Zrotation
	JOINT spine_1
	{
		OFFSET	0	9.99999	0
		CHANNELS 3  Xrotation Yrotation Zrotation
		JOINT spine_2
		{
			OFFSET	0	112	-10
			CHANNELS 3  Xrotation Yrotation Zrotation
			JOINT spine_3
			{
				OFFSET	0	206.5	19.3
				CHANNELS 3  Xrotation Yrotation Zrotation
				JOINT spine_4
				{
					OFFSET	0	110.4	14.6
					CHANNELS 3  Xrotation Yrotation Zrotation
					JOINT neck_1
					{
						OFFSET	0	71.8	-50.3
						CHANNELS 3  Xrotation Yrotation Zrotation
						JOINT neck_2
						{
							OFFSET	0	86.2	-25.8
							CHANNELS 3  Xrotation Yrotation Zrotation
							JOINT head_ee
							{
								OFFSET	0	179.8	-8.7
								CHANNELS 3  Xrotation Yrotation Zrotation
								End Site
								{
									OFFSET	1	0	0
								}
							}
						}
					}
					JOINT left_clavicle
					{
						OFFSET	-43.2	22.4	-70.8
						CHANNELS 3  Xrotation Yrotation Zrotation
						JOINT left_shoulder
						{
							OFFSET	-93.9	-5.79999	48.7
							CHANNELS 3  Xrotation Yrotation Zrotation
							JOINT left_elbow
							{
								OFFSET	-291.4	-30.8	15.2
								CHANNELS 3  Xrotation Yrotation Zrotation
								JOINT left_lowarm_twist
								{
									OFFSET	-110.7	-3.89999	13.6
									CHANNELS 3  Xrotation Yrotation Zrotation
									JOINT left_hand
									{
										OFFSET	-110.7	-3.89999	13.6
										CHANNELS 3  Xrotation Yrotation Zrotation
										JOINT left_ee
										{
											OFFSET	-80.8	-5.10001	12.1
											CHANNELS 3  Xrotation Yrotation Zrotation
											End Site
											{
												OFFSET	1	0	0
											}
										}
									}
								}
							}
						}
					}
					JOINT right_clavicle
					{
						OFFSET	43.2	22.4	-70.8
						CHANNELS 3  Xrotation Yrotation Zrotation
						JOINT right_shoulder
						{
							OFFSET	93.9	-5.79999	48.7
							CHANNELS 3  Xrotation Yrotation Zrotation
							JOINT right_elbow
							{
								OFFSET	291.4	-30.8	15.2
								CHANNELS 3  Xrotation Yrotation Zrotation
								JOINT right_lowarm_twist
								{
									OFFSET	110.7	-3.89999	13.6
									CHANNELS 3  Xrotation Yrotation Zrotation
									JOINT right_hand
									{
										OFFSET	110.7	-3.89999	13.6
										CHANNELS 3  Xrotation Yrotation Zrotation
										JOINT right_ee
										{
											OFFSET	80.8	-5.10001	12.1
											CHANNELS 3  Xrotation Yrotation Zrotation
											End Site
											{
												OFFSET	1	0	0
											}
										}
									}
								}
							}
						}
					}
				}
			}
		}
	}
	JOINT left_hip
	{
		OFFSET	-82.8	-127.5	0.300001
		CHANNELS 3  Xrotation Yrotation Zrotation
		JOINT left_knee
		{
			OFFSET	-28.2	-396.7	2.2
			CHANNELS 3  Xrotation Yrotation Zrotation
			JOINT left_ankle
			{
				OFFSET	-11.7	-411.3	35.4
				CHANNELS 3  Xrotation Yrotation Zrotation
				JOINT left_toes
				{
					OFFSET	0	-60	-88.6
					CHANNELS 3  Xrotation Yrotation Zrotation
					JOINT left_foot_ee
					{
						OFFSET	-22.5	-16.5	-42.2
						CHANNELS 3  Xrotation Yrotation Zrotation
						End Site
						{
							OFFSET	1	0	0
						}
					}
				}
			}
		}
	}
	JOINT right_hip
	{
		OFFSET	82.8	-127.5	0.300001
		CHANNELS 3  Xrotation Yrotation Zrotation
		JOINT right_knee
		{
			OFFSET	28.2	-396.7	2.2
			CHANNELS 3  Xrotation Yrotation Zrotation
			JOINT right_ankle
			{
				OFFSET	11.7	-411.3	35.4
				CHANNELS 3  Xrotation Yrotation Zrotation
				JOINT right_toes
				{
					OFFSET	0	-60	-88.6
					CHANNELS 3  Xrotation Yrotation Zrotation
					JOINT right_foot_ee
					{
						OFFSET	22.5	-16.5	-42.2
						CHANNELS 3  Xrotation Yrotation Zrotation
						End Site
						{
							OFFSET	1	0	0
						}
					}
				}
			}
		}
	}
}
MOTION
Frames: 16
Frame Time: 0.02
2785.51662183 701.07 -1706.23986609 7.92394140841 58.7312392063 -5.11489373988 -1.16622 0.0754617 1.01839 -1.16565 0.0105092 1.02113 -1.16503 -0.224666 0.996168 -1.16641 -0.0645289 1.01914 -12.7383 4.07908 0.551926 -12.7709 7.40432 1.72567 -0.0 0.0 -0.0 -0.611624 10.4452 0.188455 2.44447 -26.7877 60.9736 1.24639 -31.6909 0.353774 -84.3317 -8.36828 5.20051 -4.3961 6.78045 -26.8576 -0.0 0.0 -0.0 7.00841 29.2051 -11.8977 -15.712 17.2673 -68.5321 0.689885 18.8678 -0.114631 33.4545 0.0532746 4.21316 2.11521 -16.8318 -20.2427 0.0 0.0 0.0 6.84149 21.3953 -0.504798 -20.6114 0.28787 3.13285 36.6999 14.3897 -4.61718 -39.8458 0.0 0.0 -0.0 0.0 -0.0 12.6595 21.7212 -10.9347 -55.3721 1.72152 -7.99621 27.0882 25.0861 4.18309 -7.28619 0.0 0.0 0.0 0.0 0.0 
2763.23989746 707.751 -1667.83466715 9.15082573454 63.349305531 -6.57307939898 -1.14134 0.0937916 1.05902 -1.14072 0.0262173 1.06284 -1.13976 -0.218514 1.04047 -1.14127 -0.051459 1.06192 -12.6936 4.2599 0.96424 -12.7249 7.48594 2.17001 -0.0 0.0 -0.0 -0.623828 9.89828 0.0955114 3.88478 -27.257 60.235 1.26996 -32.1726 0.36624 -84.0534 -8.3334 5.20685 -4.43517 8.0083 -26.3879 -0.0 0.0 -0.0 6.64695 28.8622 -11.1466 -16.5809 18.0851 -69.0316 0.631851 17.3803 -0.0965764 33.25 0.0454796 4.1882 2.09215 -16.3487 -19.9431 0.0 0.0 0.0 3.37859 17.8682 1.0622 -18.6115 0.309578 2.82678 36.108 16.9027 -4.59572 -40.1429 0.0 0.0 -0.0 0.0 -0.0 20.5677 19.9761 -11.7917 -56.2311 1.80705 -8.0973 29.2859 26.7204 4.53564 -7.32836 0.0 0.0 0.0 0.0 0.0 
2746.19280165 710.801 -1618.5474021 12.7934153553 69.0257633125 -10.4317451404 -1.17304 -0.0952786 0.896656 -1.1726 -0.15214 0.888777 -1.17474 -0.35266 0.829885 -1.17563 -0.217174 0.875162 -13.0811 3.77164 0.654606 -13.1095 6.76625 1.75314 -0.0 0.0 -0.0 0.96639 9.46898 2.79877 4.96903 -27.8535 57.358 1.23903 -31.5394 0.349914 -83.8231 -8.30449 5.21197 -4.40497 10.172 -24.8191 -0.0 0.0 -0.0 6.32906 28.5301 -10.4895 -17.5889 18.5339 -68.7527 0.56975 15.7612 -0.0788634 32.6878 0.0245112 4.11947 1.90351 -17.6038 -19.0945 0.0 0.0 0.0 0.884074 15.7399 2.68817 -17.2073 0.31843 2.61152 35.5226 17.8392 -4.55312 -39.4308 0.0 0.0 -0.0 0.0 -0.0 27.924 21.5215 -14.0428 -55.5295 1.73708 -8.01483 29.9574 27.6406 4.66635 -6.85962 0.0 0.0 0.0 0.0 0.0 
2734.33700648 711.117 -1585.36639185 12.6389154419 71.5352873417 -10.2068139006 -1.18124 -0.034564 0.875448 -1.18081 -0.0901989 0.871475 -1.18193 -0.288496 0.827272 -1.18285 -0.154229 0.862449 -12.9885 3.7478 0.779884 -13.0148 6.63931 1.86004 -0.0 0.0 -0.0 1.50031 9.57582 3.73424 6.2238 -27.4959 55.5203 1.26882 -32.1493 0.365631 -83.5546 -8.27077 5.21779 -4.91986 13.0058 -26.6377 -0.0 0.0 -0.0 6.29795 28.6883 -10.4041 -18.0777 19.2221 -68.5069 0.516523 14.3525 -0.0650352 31.848 -0.00554803 4.01644 1.48352 -18.8224 -16.7837 0.0 0.0 0.0 0.308183 16.1273 3.22336 -15.5969 0.322086 2.36447 38.159 20.5795 -4.86793 -39.2285 0.0 0.0 -0.0 0.0 -0.0 31.7922 21.4834 -14.7403 -55.8073 1.76466 -8.04758 30.6104 28.3209 4.78365 -6.38768 0.0 0.0 0.0 0.0 0.0 
2702.89373095 710.951 -1563.97189928 11.5510340776 73.0460588353 -9.47538820249 -1.05598 -0.285429 0.675754 -1.05578 -0.32785 0.656223 -1.05955 -0.468981 0.564069 -1.0598 -0.374013 0.631055 -12.3283 4.26392 2.19154 -12.3404 6.69509 3.3223 -0.0 0.0 -0.0 2.5746 9.04513 5.56739 11.3462 -24.8725 53.6243 1.38018 -34.3587 0.426711 -83.7894 -8.30027 5.21271 -5.08561 16.3471 -25.4738 -0.0 0.0 -0.0 6.42688 27.1017 -10.8581 -20.4412 18.8039 -67.3905 0.418771 11.7198 -0.0429799 31.7006 -0.0106713 3.9983 1.2384 -20.3271 -15.7265 0.0 0.0 0.0 -3.18567 12.7836 5.14113 -12.2242 0.307244 1.84728 39.5907 20.9666 -5.01365 -39.2316 0.0 0.0 -0.0 0.0 -0.0 36.291 21.759 -14.8517 -52.0701 1.4072 -7.59614 29.6383 30.5931 4.7976 -8.03482 0.0 0.0 0.0 0.0 0.0 
2705.76456461 710.951 -1551.79133637 12.6125109395 74.4897710513 -10.580844733 -1.05598 -0.285429 0.675754 -1.05578 -0.32785 0.656223 -1.05955 -0.468981 0.564069 -1.0598 -0.374013 0.631055 -12.3283 4.26392 2.19154 -12.3404 6.69509 3.3223 -0.0 0.0 -0.0 2.5746 9.04513 5.56739 11.3462 -24.8725 53.6243 1.38018 -34.3587 0.426711 -83.7894 -8.30027 5.21271 -5.08561 16.3471 -25.4738 -0.0 0.0 -0.0 6.42688 27.1017 -10.8581 -20.4412 18.8039 -67.3905 0.418771 11.7198 -0.0429799 31.7006 -0.0106713 3.9983 1.2384 -20.3271 -15.7265 0.0 0.0 0.0 -3.18567 12.7836 5.14113 -12.2242 0.307244 1.84728 39.5907 20.9666 -5.01365 -39.2316 0.0 0.0 -0.0 0.0 -0.0 36.291 21.759 -14.8517 -52.0701 1.4072 -7.59614 29.6383 30.5931 4.7976 -8.03482 0.0 0.0 0.0 0.0 0.0 
2688.92173756 712.984 -1539.38136554 13.5015721459 74.5535104829 -12.2714095717 -1.27928 -0.126998 0.76436 -1.27897 -0.175378 0.754731 -1.28114 -0.345699 0.693449 -1.28174 -0.231847 0.73934 -12.6443 4.76916 2.8724 -12.6527 7.244 4.13844 -0.0 0.0 -0.0 2.9941 8.93512 6.29661 13.198 -23.8783 53.2623 1.49062 -36.4401 0.490693 -84.1156 -8.34119 5.20545 -5.40607 18.2777 -26.2721 -0.0 0.0 -0.0 6.63654 26.8715 -11.3409 -21.3561 18.6709 -66.7068 0.394483 11.0573 -0.0381837 31.5606 -0.0154885 3.98108 1.05245 -21.5977 -14.9896 0.0 0.0 0.0 -4.98303 12.7245 6.58629 -11.3236 0.298132 1.70939 40.0764 22.1004 -5.08866 -39.9984 0.0 0.0 -0.0 0.0 -0.0 38.0862 21.1047 -13.8628 -47.7188 1.02935 -7.04295 28.663 31.475 4.72697 -9.01102 0.0 0.0 0.0 0.0 0.0 
2670.69930204 714.668 -1534.47324879 12.5143570378 75.5487570411 -11.435505194 -1.41931 -0.0699539 0.68483 -1.41906 -0.113389 0.678991 -1.42025 -0.269362 0.633508 -1.42078 -0.165933 0.668097 -12.5261 5.03037 3.37533 -12.5266 7.412 4.68742 -0.0 0.0 -0.0 3.26154 8.78041 6.75943 15.2151 -23.3823 52.939 1.57879 -38.0258 0.54405 -84.1977 -8.35149 5.20359 -5.66314 19.8488 -26.8288 -0.0 0.0 -0.0 6.78796 26.7027 -11.69 -22.4702 18.4439 -66.1443 0.365716 10.2688 -0.0328607 31.4655 -0.0187381 3.96937 0.901918 -22.3893 -14.3326 0.0 0.0 0.0 -5.91491 12.1274 6.91073 -10.6365 0.289724 1.6043 40.3813 22.8083 -5.13697 -40.0839 0.0 0.0 -0.0 0.0 -0.0 39.0639 20.8022 -13.2255 -44.9118 0.808446 -6.67176 28.148 31.8363 4.68189 -9.6144 0.0 0.0 0.0 0.0 0.0 
2653.42376997 713.249 -1525.78680596 10.7201196135 76.024933806 -9.46644285973 -1.43052 -0.0555063 0.602885 -1.43032 -0.0937563 0.598131 -1.43118 -0.231429 0.559458 -1.43159 -0.140171 0.588985 -12.5669 5.35607 3.64448 -12.5664 7.86391 5.04183 -0.0 0.0 -0.0 3.54366 8.48913 7.24515 16.9052 -23.0189 52.9838 1.67504 -39.6815 0.604436 -84.3539 -8.37107 5.2 -5.89621 21.0868 -27.429 -0.0 0.0 -0.0 6.88285 26.6114 -11.9074 -23.3528 18.1883 -65.4924 0.365151 10.2533 -0.0327602 31.4815 -0.0181935 3.97134 0.82124 -23.0561 -14.065 0.0 0.0 0.0 -6.72251 11.8537 7.03839 -10.1879 0.283555 1.53575 40.29 23.0564 -5.13557 -40.2542 0.0 0.0 -0.0 0.0 -0.0 39.6771 20.6298 -12.6523 -42.1607 0.60992 -6.29807 27.7929 32.0708 4.64936 -10.0493 0.0 0.0 0.0 0.0 0.0 
2629.66945809 709.677 -1521.96208467 7.37211738453 74.9165894092 -6.76974712667 -1.42081 -0.067697 0.327719 -1.42076 -0.0884133 0.322747 -1.42123 -0.161592 0.293038 -1.42134 -0.113284 0.31488 -12.2758 6.0326 3.97341 -12.2764 8.91198 5.53112 -0.0 0.0 -0.0 3.50729 8.16263 7.16754 16.9259 -22.5001 53.4776 1.87361 -42.861 0.735466 -84.8336 -8.43112 5.18864 -6.15051 22.6654 -27.8399 -0.0 0.0 -0.0 6.06132 25.7147 -10.204 -24.3638 18.2236 -65.5767 0.511743 14.2252 -0.0638555 31.2522 -0.0259586 3.94308 0.741248 -23.4255 -13.709 0.0 0.0 0.0 -9.31261 11.3019 9.98119 -7.32576 0.231575 1.09967 39.9378 21.162 -5.05105 -40.2245 0.0 0.0 -0.0 0.0 -0.0 39.9957 20.3635 -11.2854 -30.6595 -0.0182401 -4.64936 24.7505 31.2668 4.1811 -10.6227 0.0 0.0 0.0 0.0 0.0 
2609.13536241 704.313 -1520.11578592 7.71588010781 76.2389505467 -6.62940718472 -1.45523 -0.118001 0.126523 -1.45523 -0.125813 0.118758 -1.4555 -0.150193 0.0858747 -1.45549 -0.134745 0.108517 -12.7678 6.11216 4.39244 -12.7617 8.84883 5.99082 -0.0 0.0 -0.0 3.70821 8.27585 7.52878 17.8895 -22.5712 53.723 2.01328 -44.918 0.832312 -84.6596 -8.40935 5.19282 -6.34969 23.4469 -28.5093 -0.0 0.0 -0.0 5.88595 25.0869 -9.88475 -25.7252 17.8393 -65.4556 0.513382 14.2688 -0.0642587 31.1752 -0.0285389 3.93359 0.663168 -24.286 -13.5295 0.0 0.0 0.0 -11.5716 11.5946 9.36199 -5.30197 0.181702 0.79312 39.9451 18.9372 -4.99961 -40.2713 0.0 0.0 -0.0 0.0 -0.0 41.5169 20.342 -13.7498 -24.198 -0.222234 -3.67921 22.8049 30.7477 3.87373 -10.6449 0.0 0.0 0.0 0.0 0.0 
2584.65138415 700.807 -1516.99604779 4.79891316389 74.6661269612 -3.41389486276 -1.23648 0.160268 -0.239265 -1.23647 0.175168 -0.228582 -1.23718 0.223278 -0.181881 -1.23718 0.191752 -0.214861 -12.4714 6.20781 3.55342 -12.4893 9.5323 5.19645 -0.0 0.0 -0.0 3.69198 8.36045 7.50306 17.7307 -20.707 54.957 2.33817 -49.1868 1.07029 -85.1051 -8.46506 5.18199 -6.90066 25.9956 -29.8806 -0.0 0.0 -0.0 5.4679 24.5278 -9.02942 -25.7081 17.8523 -65.1352 0.529987 14.7106 -0.0684136 30.6626 -0.0453995 3.87029 0.522945 -25.7726 -13.2005 0.0 0.0 0.0 -13.2031 12.622 10.7746 -4.18637 0.149585 0.624924 38.9129 20.6849 -4.94271 -40.1151 0.0 0.0 -0.0 0.0 -0.0 39.7662 20.3197 -14.2316 -10.8568 -0.292557 -1.63798 21.0277 29.8676 3.56917 -10.9888 0.0 0.0 0.0 0.0 0.0 
2559.89086571 695.29 -1514.31423604 6.65620214482 73.8916008104 -5.79640235624 -1.37523 -0.0533126 -0.372539 -1.37515 -0.0294991 -0.375176 -1.37489 0.0589488 -0.371689 -1.37508 -0.000491834 -0.376334 -13.475 8.22223 5.26018 -13.5031 12.4136 7.51852 -0.0 0.0 -0.0 3.75428 8.24689 7.60958 16.8625 -20.4945 54.6259 2.32325 -49.0054 1.05902 -85.161 -8.47204 5.1806 -7.79774 28.1432 -33.776 -0.0 0.0 -0.0 5.22569 23.7808 -8.57561 -26.7826 19.5659 -64.0012 0.529192 14.6895 -0.0682117 29.8048 -0.0723486 3.76403 0.544847 -26.7053 -13.6302 0.0 0.0 0.0 -14.4859 13.1709 12.0427 -7.06125 0.225672 1.05951 41.9389 19.0219 -5.18064 -40.1545 0.0 0.0 -0.0 0.0 -0.0 37.9833 21.7882 -13.0953 -2.58708 -0.0978413 -0.384942 15.9513 30.1633 2.7966 -8.40208 0.0 0.0 0.0 0.0 0.0 
2538.14899214 692.92 -1517.60963557 5.79931722856 73.7398537295 -4.86449745897 -1.45307 -0.13634 -0.528842 -1.45292 -0.102413 -0.536446 -1.4518 0.0264512 -0.545493 -1.45221 -0.0600299 -0.542825 -13.8845 9.15508 5.3329 -13.9527 14.206 7.93103 -0.0 0.0 -0.0 3.85611 7.61894 7.76927 16.7979 -19.3602 55.5101 2.38458 -49.7427 1.10556 -85.1821 -8.47468 5.18007 -8.44116 29.8803 -36.2557 -0.0 0.0 -0.0 5.30728 23.9673 -8.73487 -26.7183 21.0698 -63.1104 0.52193 14.4965 -0.0663822 28.8854 -0.099457 3.64973 0.525866 -27.028 -13.6261 0.0 0.0 0.0 -15.0004 12.8197 12.3927 -9.10071 0.266378 1.36981 42.311 19.5491 -5.22555 -40.3069 0.0 0.0 -0.0 0.0 -0.0 36.6474 22.6554 -12.2324 0.768815 0.0324211 0.113523 17.5184 29.8587 3.03336 -5.80492 0.0 0.0 0.0 0.0 0.0 
2491.01683156 685.844 -1507.98388983 4.28235590273 74.0418317671 -3.45707788358 -1.52671 -0.172632 -0.733557 -1.52642 -0.125605 -0.743055 -1.52448 0.0533895 -0.751702 -1.52526 -0.0659944 -0.7507 -13.0293 10.8025 6.63506 -13.0797 16.4159 9.5554 -0.0 0.0 -0.0 3.11777 7.62393 6.44927 17.1946 -16.7951 59.3303 2.39435 -49.8581 1.11302 -85.141 -8.46955 5.1811 -9.13873 30.5072 -40.547 -0.0 0.0 -0.0 5.87952 25.4961 -9.82958 -26.339 22.6126 -62.1798 0.514797 14.3066 -0.064608 27.5693 -0.135062 3.48538 0.447381 -28.4243 -13.632 0.0 0.0 0.0 -18.9758 12.5281 13.8795 -7.18982 0.228564 1.07903 42.1291 20.206 -5.22573 -39.1966 0.0 0.0 -0.0 0.0 -0.0 37.1361 24.354 -13.1466 -0.449543 -0.0182492 -0.0665734 16.922 29.7322 2.93469 -1.36094 0.0 0.0 0.0 0.0 0.0 
2466.64486893 682.202 -1500.29183549 4.46587327079 74.9372120703 -3.8990360416 -1.57234 -0.203975 -0.729443 -1.57205 -0.157147 -0.740944 -1.5697 0.0228359 -0.75708 -1.57048 -0.097014 -0.751186 -12.6793 11.4123 6.74953 -12.7378 17.4469 9.797 -0.0 0.0 -0.0 2.87069 7.96577 6.02742 16.6824 -15.7084 60.2983 2.40444 -49.9767 1.12074 -85.1981 -8.47668 5.17967 -9.262 30.583 -41.3852 -0.0 0.0 -0.0 5.96082 25.921 -9.96366 -25.8783 22.8855 -62.1877 0.534011 14.8174 -0.069439 26.9731 -0.149947 3.41067 0.417975 -28.8912 -13.6175 0.0 0.0 0.0 -19.3156 12.5712 13.9468 -10.2544 0.284503 1.54591 42.0496 20.9063 -5.23669 -39.3095 0.0 0.0 -0.0 0.0 -0.0 37.1572 25.01 -13.462 -3.5161 -0.128715 -0.524176 17.5005 29.389 3.01202 0.205597 -0.0 -0.0 0.0 0.0 0.0 
